<svg width="24" height="24" viewBox="0 0 24 24" fill="none" xmlns="http://www.w3.org/2000/svg">
<path d="M19.7632 18.1125C20.5 16.9101 20.5 15.2734 20.5 12C20.5 8.72657 20.5 7.08985 19.7632 5.88751C19.3509 5.21473 18.7853 4.64908 18.1125 4.2368C16.9101 3.5 15.2734 3.5 12 3.5C8.72657 3.5 7.08985 3.5 5.88751 4.2368C5.21473 4.64908 4.64908 5.21473 4.2368 5.88751C3.5 7.08985 3.5 8.72657 3.5 12C3.5 15.2734 3.5 16.9101 4.2368 18.1125C4.64908 18.7853 5.21473 19.3509 5.88751 19.7632C7.08985 20.5 8.72657 20.5 12 20.5C15.2734 20.5 16.9101 20.5 18.1125 19.7632C18.7853 19.3509 19.3509 18.7853 19.7632 18.1125Z" stroke="#FCFFF9" stroke-opacity="0.85" stroke-width="1.5" stroke-linecap="round" stroke-linejoin="round"/>
<path d="M17.5 7C17.5 7.27614 17.2761 7.5 17 7.5C16.7239 7.5 16.5 7.27614 16.5 7C16.5 6.72386 16.7239 6.5 17 6.5C17.2761 6.5 17.5 6.72386 17.5 7Z" stroke="#FCFFF9" stroke-opacity="0.85" stroke-width="1.5" stroke-linecap="round" stroke-linejoin="round"/>
<path d="M16 12C16 14.2091 14.2091 16 12 16C9.79086 16 8 14.2091 8 12C8 9.79086 9.79086 8 12 8C14.2091 8 16 9.79086 16 12Z" stroke="#FCFFF9" stroke-opacity="0.85" stroke-width="1.5" stroke-linecap="round" stroke-linejoin="round"/>
</svg>
