<svg width="24" height="25" viewBox="0 0 24 25" fill="none" xmlns="http://www.w3.org/2000/svg">
<path d="M24 2.17704V19.5098C24 19.8635 23.8595 20.2026 23.6095 20.4526C23.3594 20.7027 23.0203 20.8431 22.6667 20.8431C22.3131 20.8431 21.974 20.7027 21.7239 20.4526C21.4739 20.2026 21.3334 19.8635 21.3334 19.5098V5.39528L2.27734 24.453C2.02716 24.7032 1.68784 24.8438 1.33403 24.8438C0.980226 24.8438 0.640909 24.7032 0.390729 24.453C0.140549 24.2028 0 23.8635 0 23.5097C0 23.1559 0.140549 22.8166 0.390729 22.5664L19.4485 3.51033H5.33391C4.9803 3.51033 4.64117 3.36986 4.39113 3.11982C4.14109 2.86978 4.00062 2.53065 4.00062 2.17704C4.00062 1.82343 4.14109 1.4843 4.39113 1.23426C4.64117 0.984222 4.9803 0.84375 5.33391 0.84375H22.6667C23.0203 0.84375 23.3594 0.984222 23.6095 1.23426C23.8595 1.4843 24 1.82343 24 2.17704Z" fill="#F7FFEF"/>
</svg>
