<svg width="23" height="23" viewBox="0 0 23 23" fill="none" xmlns="http://www.w3.org/2000/svg">
<path d="M22.2109 1.66261V17.551C22.2109 17.8752 22.0822 18.186 21.853 18.4152C21.6238 18.6444 21.3129 18.7732 20.9888 18.7732C20.6646 18.7732 20.3537 18.6444 20.1245 18.4152C19.8953 18.186 19.7666 17.8752 19.7666 17.551V4.61266L2.2985 22.0823C2.06917 22.3116 1.75813 22.4404 1.4338 22.4404C1.10948 22.4404 0.798437 22.3116 0.569106 22.0823C0.339774 21.8529 0.210938 21.5419 0.210938 21.2176C0.210938 20.8932 0.339774 20.5822 0.569106 20.3529L18.0387 2.8848H5.10035C4.77621 2.8848 4.46534 2.75603 4.23614 2.52683C4.00694 2.29762 3.87817 1.98676 3.87817 1.66261C3.87817 1.33847 4.00694 1.0276 4.23614 0.798399C4.46534 0.569195 4.77621 0.44043 5.10035 0.44043H20.9888C21.3129 0.44043 21.6238 0.569195 21.853 0.798399C22.0822 1.0276 22.2109 1.33847 22.2109 1.66261Z" fill="#002132"/>
</svg>
