<svg width="65" height="65" viewBox="0 0 65 65" fill="none" xmlns="http://www.w3.org/2000/svg">
<g clip-path="url(#clip0_4447_10)">
<path d="M64.4059 22.9379L54.2496 12.7817C54.061 12.5928 53.8369 12.443 53.5904 12.3407C53.3438 12.2385 53.0794 12.1859 52.8125 12.1859C52.5456 12.1859 52.2812 12.2385 52.0347 12.3407C51.7881 12.443 51.564 12.5928 51.3754 12.7817L42.6563 21.5033L33.9371 12.7817C33.7485 12.5928 33.5244 12.443 33.2779 12.3407C33.0313 12.2385 32.7669 12.1859 32.5 12.1859C32.2331 12.1859 31.9688 12.2385 31.7222 12.3407C31.4756 12.443 31.2515 12.5928 31.0629 12.7817L22.3438 21.5033L13.6246 12.7817C13.436 12.5928 13.2119 12.443 12.9654 12.3407C12.7188 12.2385 12.4544 12.1859 12.1875 12.1859C11.9206 12.1859 11.6563 12.2385 11.4097 12.3407C11.1631 12.443 10.9391 12.5928 10.7504 12.7817L0.594152 22.9379C0.405293 23.1265 0.25547 23.3506 0.153249 23.5972C0.0510278 23.8438 -0.00158691 24.1081 -0.00158691 24.375C-0.00158691 24.6419 0.0510278 24.9063 0.153249 25.1529C0.25547 25.3994 0.405293 25.6235 0.594152 25.8121L10.7504 35.9684C10.9391 36.1572 11.1631 36.3071 11.4097 36.4093C11.6563 36.5115 11.9206 36.5641 12.1875 36.5641C12.4544 36.5641 12.7188 36.5115 12.9654 36.4093C13.2119 36.3071 13.436 36.1572 13.6246 35.9684L22.3438 27.2467L29.6283 34.5313L20.9067 43.2504C20.7178 43.439 20.568 43.6631 20.4657 43.9097C20.3635 44.1563 20.3109 44.4206 20.3109 44.6875C20.3109 44.9544 20.3635 45.2188 20.4657 45.4654C20.568 45.712 20.7178 45.936 20.9067 46.1246L31.0629 56.2809C31.2515 56.4697 31.4756 56.6196 31.7222 56.7218C31.9688 56.824 32.2331 56.8766 32.5 56.8766C32.7669 56.8766 33.0313 56.824 33.2779 56.7218C33.5244 56.6196 33.7485 56.4697 33.9371 56.2809L44.0934 46.1246C44.2822 45.936 44.4321 45.712 44.5343 45.4654C44.6365 45.2188 44.6891 44.9544 44.6891 44.6875C44.6891 44.4206 44.6365 44.1563 44.5343 43.9097C44.4321 43.6631 44.2822 43.439 44.0934 43.2504L35.3717 34.5313L42.6563 27.2467L51.3754 35.9684C51.564 36.1572 51.7881 36.3071 52.0347 36.4093C52.2812 36.5115 52.5456 36.5641 52.8125 36.5641C53.0794 36.5641 53.3438 36.5115 53.5904 36.4093C53.8369 36.3071 54.061 36.1572 54.2496 35.9684L64.4059 25.8121C64.5947 25.6235 64.7446 25.3994 64.8468 25.1529C64.949 24.9063 65.0016 24.6419 65.0016 24.375C65.0016 24.1081 64.949 23.8438 64.8468 23.5972C64.7446 23.3506 64.5947 23.1265 64.4059 22.9379ZM12.1875 31.6596L4.90294 24.375L12.1875 17.0904L19.4721 24.375L12.1875 31.6596ZM32.5 51.9721L25.2154 44.6875L32.5 37.4029L39.7846 44.6875L32.5 51.9721ZM32.5 31.6596L25.2154 24.375L32.5 17.0904L39.7846 24.375L32.5 31.6596ZM52.8125 31.6596L45.5279 24.375L52.8125 17.0904L60.0971 24.375L52.8125 31.6596Z" fill="#FCFFF9" fill-opacity="0.95"/>
</g>
<defs>
<clipPath id="clip0_4447_10">
<rect width="65" height="65" fill="white"/>
</clipPath>
</defs>
</svg>
