<svg width="65" height="65" viewBox="0 0 65 65" fill="none" xmlns="http://www.w3.org/2000/svg">
<path d="M60.5923 8.47026C59.8378 7.71558 58.942 7.11694 57.9561 6.7085C56.9702 6.30007 55.9135 6.08984 54.8464 6.08984C53.7792 6.08984 52.7225 6.30007 51.7367 6.7085C50.7508 7.11694 49.855 7.71558 49.1005 8.47026C48.3458 9.22476 47.7472 10.1205 47.3387 11.1064C46.9303 12.0923 46.7201 13.149 46.7201 14.2162C46.7201 15.2833 46.9303 16.34 47.3387 17.3259C47.7472 18.3118 48.3458 19.2076 49.1005 19.9621C49.1741 20.0357 49.2528 20.1068 49.329 20.1779L42.5675 32.7361C40.506 32.2334 38.3299 32.552 36.4991 33.6247L31.3753 28.5009C32.3833 26.7972 32.7347 24.784 32.3633 22.8395C31.992 20.895 30.9235 19.153 29.3585 17.9406C27.7935 16.7282 25.8398 16.1289 23.8642 16.2552C21.8886 16.3815 20.027 17.2247 18.6292 18.6265C17.8745 19.381 17.2759 20.2768 16.8674 21.2627C16.459 22.2486 16.2488 23.3053 16.2488 24.3724C16.2488 25.4396 16.459 26.4962 16.8674 27.4821C17.2759 28.468 17.8745 29.3638 18.6292 30.1183C18.7028 30.1919 18.779 30.263 18.8552 30.3341L12.0937 42.8949C10.7364 42.5608 9.31599 42.5825 7.96962 42.9579C6.62325 43.3333 5.39649 44.0497 4.40791 45.0378C3.2718 46.1742 2.49815 47.622 2.1848 49.198C1.87144 50.774 2.03245 52.4076 2.64747 53.8922C3.26249 55.3767 4.30389 56.6455 5.64 57.5382C6.97611 58.4309 8.54692 58.9074 10.1538 58.9074C11.7607 58.9074 13.3315 58.4309 14.6676 57.5382C16.0037 56.6455 17.0451 55.3767 17.6602 53.8922C18.2752 52.4076 18.4362 50.774 18.1228 49.198C17.8095 47.622 17.0358 46.1742 15.8997 45.0378C15.8261 44.9642 15.7474 44.8931 15.6712 44.822L22.4327 32.2638C23.0685 32.4195 23.7206 32.4988 24.3751 32.4999C25.8257 32.5017 27.2504 32.1151 28.5011 31.3802L33.6249 36.504C32.8535 37.8132 32.4647 39.3125 32.5026 40.8315C32.5406 42.3505 33.0037 43.8285 33.8394 45.0975C34.6752 46.3666 35.8501 47.3758 37.2306 48.0107C38.6112 48.6455 40.1421 48.8805 41.6495 48.6889C43.1569 48.4973 44.5803 47.8869 45.7582 46.9269C46.9361 45.9669 47.8211 44.6958 48.3129 43.2581C48.8046 41.8203 48.8833 40.2735 48.5401 38.7933C48.1968 37.313 47.4453 35.9587 46.371 34.8841C46.2974 34.8105 46.2212 34.7394 46.145 34.6683L52.9065 22.1101C53.5407 22.2647 54.1911 22.3431 54.8438 22.3437C56.4505 22.3435 58.021 21.8669 59.3568 20.9742C60.6927 20.0816 61.7339 18.813 62.3489 17.3287C62.9638 15.8444 63.1249 14.2111 62.8118 12.6352C62.4987 11.0594 61.7254 9.61178 60.5897 8.47534L60.5923 8.47026ZM13.0255 53.658C12.2632 54.4199 11.2294 54.8478 10.1516 54.8476C9.07384 54.8474 8.04028 54.419 7.27832 53.6567C6.51637 52.8944 6.08844 51.8606 6.08868 50.7828C6.08892 49.705 6.5173 48.6715 7.27959 47.9095C7.65704 47.5322 8.1051 47.233 8.5982 47.0289C9.0913 46.8248 9.61977 46.7198 10.1534 46.7199C10.6871 46.72 11.2155 46.8252 11.7085 47.0296C12.2015 47.2339 12.6495 47.5333 13.0268 47.9108C13.404 48.2882 13.7033 48.7363 13.9074 49.2294C14.1115 49.7225 14.2165 50.251 14.2164 50.7846C14.2163 51.3183 14.1111 51.8467 13.9067 52.3397C13.7024 52.8327 13.4029 53.2807 13.0255 53.658ZM21.5009 27.2517C21.1235 26.8745 20.8242 26.4266 20.62 25.9336C20.4158 25.4407 20.3107 24.9123 20.3107 24.3788C20.3107 23.8452 20.4158 23.3168 20.62 22.8239C20.8242 22.3309 21.1235 21.8831 21.5009 21.5058C22.0691 20.9377 22.7929 20.5509 23.581 20.3942C24.369 20.2376 25.1858 20.3181 25.928 20.6256C26.6703 20.9331 27.3047 21.4538 27.7511 22.1218C28.1974 22.7899 28.4357 23.5753 28.4357 24.3788C28.4357 25.1822 28.1974 25.9676 27.7511 26.6357C27.3047 27.3037 26.6703 27.8244 25.928 28.1319C25.1858 28.4394 24.369 28.5199 23.581 28.3633C22.7929 28.2066 22.0691 27.8198 21.5009 27.2517ZM43.4993 43.5017C42.7374 44.2637 41.7039 44.6917 40.6264 44.6917C39.5488 44.6917 38.5154 44.2637 37.7534 43.5017C36.9915 42.7397 36.5634 41.7063 36.5634 40.6288C36.5634 39.5512 36.9915 38.5178 37.7534 37.7558C38.5154 36.9939 39.5488 36.5658 40.6264 36.5658C41.7039 36.5658 42.7374 36.9939 43.4993 37.7558C44.2613 38.5178 44.6893 39.5512 44.6893 40.6288C44.6893 41.7063 44.2613 42.7397 43.4993 43.5017ZM57.7181 17.0955C56.9551 17.8571 55.9208 18.2844 54.8428 18.2835C53.7648 18.2825 52.7312 17.8533 51.9696 17.0904C51.208 16.3274 50.7807 15.2931 50.7816 14.2151C50.7826 13.1371 51.2117 12.1036 51.9747 11.3419C52.3522 10.9647 52.8002 10.6654 53.2933 10.4613C53.7864 10.2572 54.3149 10.1522 54.8486 10.1523C55.3822 10.1524 55.9107 10.2576 56.4037 10.462C56.8967 10.6663 57.3446 10.9658 57.7219 11.3432C58.0992 11.7207 58.3984 12.1687 58.6025 12.6618C58.8066 13.1549 58.9116 13.6834 58.9115 14.2171C58.9114 14.7507 58.8062 15.2792 58.6018 15.7722C58.3975 16.2652 58.0981 16.7131 57.7206 17.0904L57.7181 17.0955Z" fill="#FCFFF9" fill-opacity="0.95"/>
</svg>
