<svg width="65" height="65" viewBox="0 0 65 65" fill="none" xmlns="http://www.w3.org/2000/svg">
<path d="M60.7928 33.7695L52.6678 13.457C52.4889 13.0096 52.1568 12.6404 51.7307 12.4153C51.3047 12.1901 50.8125 12.1238 50.342 12.2281L34.5313 15.7422V10.1562C34.5313 9.61753 34.3173 9.10087 33.9364 8.71994C33.5554 8.33901 33.0388 8.125 32.5 8.125C31.9613 8.125 31.4447 8.33901 31.0637 8.71994C30.6828 9.10087 30.4688 9.61753 30.4688 10.1562V16.6512L13.777 20.3607C13.4552 20.4318 13.1555 20.5802 12.9038 20.7929C12.6521 21.0057 12.4559 21.2765 12.3323 21.582V21.5973L4.20727 41.8945C4.11007 42.1366 4.06091 42.3954 4.06254 42.6562C4.06254 48.5748 10.2934 50.7812 14.2188 50.7812C18.1442 50.7812 24.375 48.5748 24.375 42.6562C24.3767 42.3954 24.3275 42.1366 24.2303 41.8945L16.9914 23.8088L30.4688 20.8203V52.8125H26.4063C25.8676 52.8125 25.3509 53.0265 24.97 53.4074C24.589 53.7884 24.375 54.305 24.375 54.8438C24.375 55.3825 24.589 55.8991 24.97 56.2801C25.3509 56.661 25.8676 56.875 26.4063 56.875H38.5938C39.1325 56.875 39.6492 56.661 40.0301 56.2801C40.411 55.8991 40.625 55.3825 40.625 54.8438C40.625 54.305 40.411 53.7884 40.0301 53.4074C39.6492 53.0265 39.1325 52.8125 38.5938 52.8125H34.5313V19.9113L47.4805 17.0371L40.7698 33.7695C40.6726 34.0116 40.6234 34.2704 40.625 34.5312C40.625 40.4498 46.8559 42.6562 50.7813 42.6562C54.7067 42.6562 60.9375 40.4498 60.9375 34.5312C60.9392 34.2704 60.89 34.0116 60.7928 33.7695ZM14.2188 46.7188C12.3069 46.7188 8.43988 45.8021 8.14281 43.0016L14.2188 27.8129L20.2948 43.0016C19.9977 45.8021 16.1307 46.7188 14.2188 46.7188ZM50.7813 38.5938C48.8694 38.5938 45.0024 37.6771 44.7053 34.8766L50.7813 19.6879L56.8573 34.8766C56.5602 37.6771 52.6932 38.5938 50.7813 38.5938Z" fill="#FCFFF9" fill-opacity="0.95"/>
</svg>
